# xmcd CD database file generated by OrangeCD 5.2
#
# Track frame offsets:
#	150
#	2849
#	49975
#	68680
#	100722
#	132351
#	154098
#	191865
#
# Disc length: 2983 seconds
#
# Revision: 0
# Processed by: cddbd v1.5.1PL0 Copyright (c) Steve Scherf et al.
# Submitted via: OrangeCD 5.2
#
DISCID=680ba508
DTITLE=Peter Green and The Splinter Group - De Boerderij, Zoetemeer, Nederland
DYEAR=2003
DGENRE=Blues
TTITLE0=Intro
TTITLE1=Black Magic Woman
TTITLE2=Man Of The World (Instrumental)
TTITLE3=Need Your Love So Bad
TTITLE4=Green Manalishi
TTITLE5=Stop Breakin' Down Blues
TTITLE6=Going Down
TTITLE7=Look On Yonder Wall
EXTD=
EXTT0=
EXTT1=
EXTT2=
EXTT3=
EXTT4=
EXTT5=
EXTT6=
EXTT7=
PLAYORDER=
